<svg width="48" height="62" viewBox="0 0 48 62" fill="none" xmlns="http://www.w3.org/2000/svg">
<rect width="48" height="62" fill="white"/>
<path d="M13.667 14C12.5603 14 11.667 14.8933 11.667 16C11.667 17.1067 12.5603 18 13.667 18C14.7737 18 15.667 17.1067 15.667 16C15.667 14.8933 14.7737 14 13.667 14ZM13.667 6C12.5603 6 11.667 6.89333 11.667 8C11.667 9.10667 12.5603 10 13.667 10C14.7737 10 15.667 9.10667 15.667 8C15.667 6.89333 14.7737 6 13.667 6ZM13.667 22C12.5603 22 11.667 22.9067 11.667 24C11.667 25.0933 12.5737 26 13.667 26C14.7603 26 15.667 25.0933 15.667 24C15.667 22.9067 14.7737 22 13.667 22ZM17.667 25.3333H36.3337V22.6667H17.667V25.3333ZM17.667 17.3333H36.3337V14.6667H17.667V17.3333ZM17.667 6.66667V9.33333H36.3337V6.66667H17.667Z" fill="black"/>
<path d="M13.874 56V46.0059H15.0361V54.9473H19.4453V56H13.874ZM22.1113 56H20.9766V48.5078H22.1113V56ZM20.8809 46.4775C20.8809 46.2178 20.9447 46.0286 21.0723 45.9102C21.1999 45.7871 21.3594 45.7256 21.5508 45.7256C21.7331 45.7256 21.8903 45.7871 22.0225 45.9102C22.1546 46.0332 22.2207 46.2223 22.2207 46.4775C22.2207 46.7327 22.1546 46.9242 22.0225 47.0518C21.8903 47.1748 21.7331 47.2363 21.5508 47.2363C21.3594 47.2363 21.1999 47.1748 21.0723 47.0518C20.9447 46.9242 20.8809 46.7327 20.8809 46.4775ZM29.3506 53.9561C29.3506 54.6533 29.0908 55.1911 28.5713 55.5693C28.0518 55.9476 27.3226 56.1367 26.3838 56.1367C25.3903 56.1367 24.6156 55.9795 24.0596 55.665V54.6123C24.4196 54.7946 24.8047 54.9382 25.2148 55.043C25.6296 55.1478 26.0283 55.2002 26.4111 55.2002C27.0036 55.2002 27.4593 55.1068 27.7783 54.9199C28.0973 54.7285 28.2568 54.4391 28.2568 54.0518C28.2568 53.7601 28.1292 53.5117 27.874 53.3066C27.6234 53.097 27.1312 52.8509 26.3975 52.5684C25.7002 52.3086 25.2035 52.083 24.9072 51.8916C24.6156 51.6956 24.3968 51.4746 24.251 51.2285C24.1097 50.9824 24.0391 50.6885 24.0391 50.3467C24.0391 49.736 24.2874 49.2552 24.7842 48.9043C25.2809 48.5488 25.9622 48.3711 26.8281 48.3711C27.6348 48.3711 28.4232 48.5352 29.1934 48.8633L28.79 49.7861C28.0381 49.4762 27.3568 49.3213 26.7461 49.3213C26.2083 49.3213 25.8027 49.4056 25.5293 49.5742C25.2559 49.7428 25.1191 49.9753 25.1191 50.2715C25.1191 50.472 25.1693 50.6429 25.2695 50.7842C25.3743 50.9255 25.5407 51.0599 25.7686 51.1875C25.9964 51.3151 26.4339 51.4997 27.0811 51.7412C27.9697 52.0648 28.569 52.3906 28.8789 52.7188C29.1934 53.0469 29.3506 53.4593 29.3506 53.9561ZM33.623 55.2002C33.8236 55.2002 34.0173 55.1865 34.2041 55.1592C34.391 55.1273 34.5391 55.0954 34.6484 55.0635V55.9316C34.5254 55.9909 34.3431 56.0387 34.1016 56.0752C33.8646 56.1162 33.6504 56.1367 33.459 56.1367C32.0098 56.1367 31.2852 55.3734 31.2852 53.8467V49.3896H30.2119V48.8428L31.2852 48.3711L31.7637 46.7715H32.4199V48.5078H34.5938V49.3896H32.4199V53.7988C32.4199 54.25 32.527 54.5964 32.7412 54.8379C32.9554 55.0794 33.2493 55.2002 33.623 55.2002Z" fill="#081E27"/>
</svg>
