<svg width="20" height="20" viewBox="0 0 20 20" fill="none" xmlns="http://www.w3.org/2000/svg">
<path d="M17.5006 2.50836H2.50065C1.58398 2.50836 0.833984 3.25836 0.833984 4.17503V7.50003H2.50065V4.15836H17.5006V15.85H2.50065V12.5H0.833984V15.8417C0.833984 16.7584 1.58398 17.4917 2.50065 17.4917H17.5006C18.4173 17.4917 19.1673 16.7584 19.1673 15.8417V4.17503C19.1673 3.25003 18.4173 2.50836 17.5006 2.50836ZM9.16732 13.3334L12.5007 10L9.16732 6.6667V9.1667H0.833984V10.8334H9.16732V13.3334ZM17.5006 2.50836H2.50065C1.58398 2.50836 0.833984 3.25836 0.833984 4.17503V7.50003H2.50065V4.15836H17.5006V15.85H2.50065V12.5H0.833984V15.8417C0.833984 16.7584 1.58398 17.4917 2.50065 17.4917H17.5006C18.4173 17.4917 19.1673 16.7584 19.1673 15.8417V4.17503C19.1673 3.25003 18.4173 2.50836 17.5006 2.50836ZM9.16732 13.3334L12.5007 10L9.16732 6.6667V9.1667H0.833984V10.8334H9.16732V13.3334Z" fill="white"/>
</svg>
