<svg width="84" height="62" viewBox="0 0 84 62" fill="none" xmlns="http://www.w3.org/2000/svg">
<rect width="84" height="62" fill="white"/>
<path d="M30 6.66669V25.3334H54V6.66669H30ZM37.1067 22.6667H32.6667V9.33335H37.1067V22.6667ZM44.2267 22.6667H39.7867V9.33335H44.2267V22.6667ZM51.3333 22.6667H46.8933V9.33335H51.3333V22.6667Z" fill="black"/>
<path d="M21.6533 46.9014C20.555 46.9014 19.6868 47.2682 19.0488 48.002C18.4154 48.7311 18.0986 49.7314 18.0986 51.0029C18.0986 52.3109 18.404 53.3226 19.0146 54.0381C19.6299 54.749 20.5049 55.1045 21.6396 55.1045C22.3369 55.1045 23.1322 54.9792 24.0254 54.7285V55.7471C23.3327 56.0068 22.4782 56.1367 21.4619 56.1367C19.9899 56.1367 18.8529 55.6901 18.0508 54.7969C17.2533 53.9036 16.8545 52.6344 16.8545 50.9893C16.8545 49.9593 17.0459 49.057 17.4287 48.2822C17.8161 47.5075 18.3721 46.9105 19.0967 46.4912C19.8258 46.0719 20.6826 45.8623 21.667 45.8623C22.7152 45.8623 23.6312 46.0537 24.415 46.4365L23.9229 47.4346C23.1663 47.0791 22.4098 46.9014 21.6533 46.9014ZM32.502 52.2471C32.502 53.4684 32.1943 54.4232 31.5791 55.1113C30.9639 55.7949 30.1139 56.1367 29.0293 56.1367C28.3594 56.1367 27.7646 55.9795 27.2451 55.665C26.7256 55.3506 26.3245 54.8994 26.042 54.3115C25.7594 53.7236 25.6182 53.0355 25.6182 52.2471C25.6182 51.0257 25.9235 50.0755 26.5342 49.3965C27.1449 48.7129 27.9925 48.3711 29.0771 48.3711C30.1253 48.3711 30.957 48.7197 31.5723 49.417C32.1921 50.1143 32.502 51.0576 32.502 52.2471ZM26.7939 52.2471C26.7939 53.2041 26.9854 53.9333 27.3682 54.4346C27.751 54.9359 28.3138 55.1865 29.0566 55.1865C29.7995 55.1865 30.3623 54.9382 30.7451 54.4414C31.1325 53.9401 31.3262 53.2087 31.3262 52.2471C31.3262 51.2946 31.1325 50.5723 30.7451 50.0801C30.3623 49.5833 29.7949 49.335 29.043 49.335C28.3001 49.335 27.7396 49.5788 27.3613 50.0664C26.9831 50.554 26.7939 51.2809 26.7939 52.2471ZM35.6328 56H34.498V45.3633H35.6328V56ZM39.1055 48.5078V53.3682C39.1055 53.9788 39.2445 54.4346 39.5225 54.7354C39.8005 55.0361 40.2357 55.1865 40.8281 55.1865C41.612 55.1865 42.1839 54.9723 42.5439 54.5439C42.9085 54.1156 43.0908 53.416 43.0908 52.4453V48.5078H44.2256V56H43.2891L43.125 54.9951H43.0635C42.8311 55.3643 42.5075 55.6468 42.0928 55.8428C41.6826 56.0387 41.2132 56.1367 40.6846 56.1367C39.7731 56.1367 39.0895 55.9202 38.6338 55.4873C38.1826 55.0544 37.957 54.3617 37.957 53.4092V48.5078H39.1055ZM56.1885 56V51.126C56.1885 50.529 56.0609 50.0824 55.8057 49.7861C55.5505 49.4854 55.154 49.335 54.6162 49.335C53.9098 49.335 53.388 49.5378 53.0508 49.9434C52.7135 50.349 52.5449 50.9733 52.5449 51.8164V56H51.4102V51.126C51.4102 50.529 51.2826 50.0824 51.0273 49.7861C50.7721 49.4854 50.3734 49.335 49.8311 49.335C49.1201 49.335 48.5983 49.5492 48.2656 49.9775C47.9375 50.4014 47.7734 51.0986 47.7734 52.0693V56H46.6387V48.5078H47.5615L47.7461 49.5332H47.8008C48.015 49.1686 48.3158 48.8838 48.7031 48.6787C49.0951 48.4736 49.5326 48.3711 50.0156 48.3711C51.1868 48.3711 51.9525 48.7949 52.3125 49.6426H52.3672C52.5905 49.2507 52.9141 48.9408 53.3379 48.7129C53.7617 48.485 54.2448 48.3711 54.7871 48.3711C55.6348 48.3711 56.2682 48.5898 56.6875 49.0273C57.1113 49.4603 57.3232 50.1553 57.3232 51.1123V56H56.1885ZM64.7949 56V51.1533C64.7949 50.5426 64.6559 50.0869 64.3779 49.7861C64.0999 49.4854 63.6647 49.335 63.0723 49.335C62.2884 49.335 61.7142 49.5469 61.3496 49.9707C60.985 50.3945 60.8027 51.0941 60.8027 52.0693V56H59.668V48.5078H60.5908L60.7754 49.5332H60.8301C61.0625 49.1641 61.3883 48.8792 61.8076 48.6787C62.2269 48.4736 62.694 48.3711 63.209 48.3711C64.1113 48.3711 64.7904 48.5898 65.2461 49.0273C65.7018 49.4603 65.9297 50.1553 65.9297 51.1123V56H64.7949Z" fill="#081E27"/>
</svg>
