<svg width="68" height="62" viewBox="0 0 68 62" fill="none" xmlns="http://www.w3.org/2000/svg">
<rect width="68" height="62" fill="white"/>
<path d="M43.3333 4H24.6667C23.2 4 22 5.2 22 6.66667V25.3333C22 26.8 23.2 28 24.6667 28H43.3333C44.8 28 46 26.8 46 25.3333V6.66667C46 5.2 44.8 4 43.3333 4ZM43.3333 6.66667V10.6667H24.6667V6.66667H43.3333ZM43.3333 13.3333V18.6667H24.6667V13.3333H43.3333ZM24.6667 25.3333V21.3333H43.3333V25.3333H24.6667Z" fill="black"/>
<path d="M20.4502 56H19.2881V47.0381H16.123V46.0059H23.6152V47.0381H20.4502V56ZM29.5625 56L29.3369 54.9336H29.2822C28.9085 55.403 28.5348 55.722 28.1611 55.8906C27.792 56.0547 27.3294 56.1367 26.7734 56.1367C26.0306 56.1367 25.4473 55.9453 25.0234 55.5625C24.6042 55.1797 24.3945 54.6351 24.3945 53.9287C24.3945 52.4157 25.6045 51.6227 28.0244 51.5498L29.2959 51.5088V51.0439C29.2959 50.4561 29.1683 50.0231 28.9131 49.7451C28.6624 49.4626 28.2591 49.3213 27.7031 49.3213C27.0788 49.3213 26.3724 49.5127 25.584 49.8955L25.2354 49.0273C25.6045 48.8268 26.0078 48.6696 26.4453 48.5557C26.8874 48.4417 27.3294 48.3848 27.7715 48.3848C28.6647 48.3848 29.3255 48.583 29.7539 48.9795C30.1868 49.376 30.4033 50.0117 30.4033 50.8867V56H29.5625ZM26.999 55.2002C27.7054 55.2002 28.2591 55.0065 28.6602 54.6191C29.0658 54.2318 29.2686 53.6895 29.2686 52.9922V52.3154L28.1338 52.3633C27.2314 52.3952 26.5798 52.5365 26.1787 52.7871C25.7822 53.0332 25.584 53.4183 25.584 53.9424C25.584 54.3525 25.707 54.6647 25.9531 54.8789C26.2038 55.0931 26.5524 55.2002 26.999 55.2002ZM36.2344 48.3848C37.2188 48.3848 37.9821 48.722 38.5244 49.3965C39.0713 50.0664 39.3447 51.0166 39.3447 52.2471C39.3447 53.4775 39.069 54.4346 38.5176 55.1182C37.9707 55.7972 37.2096 56.1367 36.2344 56.1367C35.7467 56.1367 35.3001 56.0479 34.8945 55.8701C34.4935 55.6878 34.1562 55.4098 33.8828 55.0361H33.8008L33.5615 56H32.748V45.3633H33.8828V47.9473C33.8828 48.526 33.8646 49.0456 33.8281 49.5059H33.8828C34.4115 48.7585 35.1953 48.3848 36.2344 48.3848ZM36.0703 49.335C35.2956 49.335 34.7373 49.5583 34.3955 50.0049C34.0537 50.4469 33.8828 51.1943 33.8828 52.2471C33.8828 53.2998 34.0583 54.054 34.4092 54.5098C34.7601 54.9609 35.3229 55.1865 36.0977 55.1865C36.7949 55.1865 37.3145 54.9336 37.6562 54.4277C37.998 53.9173 38.1689 53.1859 38.1689 52.2334C38.1689 51.2581 37.998 50.5312 37.6562 50.0527C37.3145 49.5742 36.7858 49.335 36.0703 49.335ZM42.4688 56H41.334V45.3633H42.4688V56ZM48.04 56.1367C46.9326 56.1367 46.0576 55.7995 45.415 55.125C44.777 54.4505 44.458 53.514 44.458 52.3154C44.458 51.1077 44.7542 50.1484 45.3467 49.4375C45.9437 48.7266 46.7435 48.3711 47.7461 48.3711C48.6849 48.3711 49.4277 48.681 49.9746 49.3008C50.5215 49.916 50.7949 50.7295 50.7949 51.7412V52.459H45.6338C45.6566 53.3385 45.8776 54.0062 46.2969 54.4619C46.7207 54.9176 47.3154 55.1455 48.0811 55.1455C48.8877 55.1455 49.6852 54.9769 50.4736 54.6396V55.6514C50.0726 55.8245 49.6921 55.9476 49.332 56.0205C48.9766 56.098 48.5459 56.1367 48.04 56.1367ZM47.7324 49.3213C47.1309 49.3213 46.6501 49.5173 46.29 49.9092C45.9346 50.3011 45.7249 50.8434 45.6611 51.5361H49.5781C49.5781 50.8206 49.4186 50.2738 49.0996 49.8955C48.7806 49.5127 48.3249 49.3213 47.7324 49.3213Z" fill="#081E27"/>
</svg>
