<svg width="24" height="24" viewBox="0 0 24 24" fill="none" xmlns="http://www.w3.org/2000/svg">
<rect x="0.5" width="23" height="24" rx="11.5" fill="#E1E2E4"/>
<path d="M15.2471 17H8.67773V16.0225L11.3096 13.377C12.1117 12.5658 12.6403 11.987 12.8955 11.6406C13.1507 11.2943 13.3421 10.957 13.4697 10.6289C13.5973 10.3008 13.6611 9.94759 13.6611 9.56934C13.6611 9.03613 13.4993 8.61458 13.1758 8.30469C12.8522 7.99023 12.4033 7.83301 11.8291 7.83301C11.4144 7.83301 11.0202 7.90137 10.6465 8.03809C10.2773 8.1748 9.86491 8.42318 9.40918 8.7832L8.80762 8.01074C9.72819 7.24512 10.7308 6.8623 11.8154 6.8623C12.7542 6.8623 13.4902 7.10384 14.0234 7.58691C14.5566 8.06543 14.8232 8.71029 14.8232 9.52148C14.8232 10.1549 14.6455 10.7816 14.29 11.4014C13.9346 12.0212 13.2692 12.805 12.2939 13.7529L10.1064 15.8926V15.9473H15.2471V17Z" fill="#354A53"/>
</svg>
