<svg width="23" height="24" viewBox="0 0 23 24" fill="none" xmlns="http://www.w3.org/2000/svg">
<rect width="23" height="24" rx="11.5" fill="#E1E2E4"/>
<path d="M14.3711 9.35742C14.3711 9.99544 14.1911 10.5173 13.8311 10.9229C13.4756 11.3285 12.9697 11.5996 12.3135 11.7363V11.791C13.1156 11.8913 13.7103 12.1465 14.0977 12.5566C14.485 12.9668 14.6787 13.5046 14.6787 14.1699C14.6787 15.1224 14.3483 15.8561 13.6875 16.3711C13.0267 16.8815 12.0879 17.1367 10.8711 17.1367C10.3424 17.1367 9.8571 17.0957 9.41504 17.0137C8.97754 16.9362 8.55143 16.7972 8.13672 16.5967V15.5166C8.56966 15.7308 9.02995 15.8949 9.51758 16.0088C10.0098 16.1182 10.4746 16.1729 10.9121 16.1729C12.6393 16.1729 13.5029 15.4961 13.5029 14.1426C13.5029 12.9303 12.5505 12.3242 10.6455 12.3242H9.66113V11.3467H10.6592C11.4385 11.3467 12.056 11.1758 12.5117 10.834C12.9674 10.4876 13.1953 10.0091 13.1953 9.39844C13.1953 8.91081 13.0267 8.52799 12.6895 8.25C12.3568 7.97201 11.9033 7.83301 11.3291 7.83301C10.8916 7.83301 10.4792 7.89225 10.0918 8.01074C9.70443 8.12923 9.26237 8.34798 8.76562 8.66699L8.19141 7.90137C8.60156 7.5778 9.07324 7.32487 9.60645 7.14258C10.1442 6.95573 10.7093 6.8623 11.3018 6.8623C12.2725 6.8623 13.0267 7.08561 13.5645 7.53223C14.1022 7.97428 14.3711 8.58268 14.3711 9.35742Z" fill="#354A53"/>
</svg>
