<svg width="20" height="20" viewBox="0 0 20 20" fill="none" xmlns="http://www.w3.org/2000/svg">
<path d="M9.16699 15H10.8337V13.3334H9.16699V15ZM10.0003 1.66669C5.40033 1.66669 1.66699 5.40002 1.66699 10C1.66699 14.6 5.40033 18.3334 10.0003 18.3334C14.6003 18.3334 18.3337 14.6 18.3337 10C18.3337 5.40002 14.6003 1.66669 10.0003 1.66669ZM10.0003 16.6667C6.32533 16.6667 3.33366 13.675 3.33366 10C3.33366 6.32502 6.32533 3.33335 10.0003 3.33335C13.6753 3.33335 16.667 6.32502 16.667 10C16.667 13.675 13.6753 16.6667 10.0003 16.6667ZM10.0003 5.00002C8.15866 5.00002 6.66699 6.49169 6.66699 8.33335H8.33366C8.33366 7.41669 9.08366 6.66669 10.0003 6.66669C10.917 6.66669 11.667 7.41669 11.667 8.33335C11.667 10 9.16699 9.79169 9.16699 12.5H10.8337C10.8337 10.625 13.3337 10.4167 13.3337 8.33335C13.3337 6.49169 11.842 5.00002 10.0003 5.00002Z" fill="#005A70"/>
</svg>
