<?xml version="1.0" encoding="UTF-8"?>
<svg className="audio-narration" xmlns="http://www.w3.org/2000/svg" width="15" height="15" viewBox="0 0 24 24">
    <g fill="none" fillRule="evenodd">
      <path fill="none" fillOpacity="0" d="M0 0H24V24H0z" />
      <path fill="#005A70" fillRule="nonzero" d="M19.24 12.54c-.227-.328-.606-.54-1.03-.54l-6.947.006c-.695 0-1.263.573-1.263 1.28v6.428c0 .707.568 1.28 1.263 1.28l6.948.006c.423 0 .802-.212 1.029-.54L22 16.5l-2.76-3.96z" />
      <path fill="#000" fillOpacity="0" fillRule="nonzero" d="M9.5 4c3.38 0 6.16 2.634 6.47 6h-1.452c-.305-2.553-2.433-4.526-5.018-4.526-2.795 0-5.056 2.306-5.056 5.158v1.473h2.89V18H5.166C3.967 18 3 17.013 3 15.79v-5.158C3 6.969 5.91 4 9.5 4zm-3.611 9.579H4.444v2.21c0 .406.325.737.723.737h.722V13.58z" />
    </g>
</svg>
