<svg xmlns="http://www.w3.org/2000/svg" width="41" height="41" viewBox="0 0 41 41">
    <g fill="none" fill-rule="evenodd">
        <g>
            <g>
                <path d="M4.246 4.246L24.746 4.246 24.746 24.746 4.246 24.746z" transform="translate(-263.000000, -681.000000) translate(283.500000, 701.500000) rotate(45.000000) translate(-283.500000, -701.500000) translate(269.004311, 687.004311) translate(14.495689, 14.495689) rotate(-45.000000) translate(-14.495689, -14.495689)"/>
                <path fill="#005A70" fill-rule="nonzero" d="M7.244 9.396l6.415 2.75-6.424-.853.009-1.897m6.406 7.449l-6.415 2.75V17.7l6.415-.854M5.535 6.808l-.008 5.98 12.812 1.708-12.812 1.708.008 5.98 17.93-7.688-17.93-7.688z" transform="translate(-263.000000, -681.000000) translate(283.500000, 701.500000) rotate(45.000000) translate(-283.500000, -701.500000) translate(269.004311, 687.004311) translate(14.495689, 14.495689) rotate(-45.000000) translate(-14.495689, -14.495689)"/>
            </g>
        </g>
    </g>
</svg>
