<svg width="14" height="14" xmlns="http://www.w3.org/2000/svg">
    <g fill="none" fill-rule="evenodd">
        <path d="M0 0h14v14H0z"/>
        <path d="M2.333 11.941c0 .17.139.309.31.309h7.48a.322.322 0 0 0 .138-.033l1.235-.617a.309.309 0 0 0 .17-.276V2.676a.309.309 0 0 0-.17-.276l-1.235-.617a.31.31 0 0 0-.138-.033h-7.48a.309.309 0 0 0-.31.309v9.882zm8.75-.808-.875.309V9.97l.875-.309v1.472zm0-2.162-.875.309V7.808l.875-.308v1.47zm0-2.162-.875.309V5.647l.875-.31V6.81zM3.174 2.625h6.738l.845.365v1.53l-.997.503a.292.292 0 0 0-.16.261V11.375H3.175v-8.75z" fill="#005A70" fill-rule="nonzero"/>
        <path d="m5.474 8.946.256-.76H7.09l.238.76h.838L6.857 5.25h-.872L4.667 8.946h.807zm1.401-1.397h-.937l.476-1.454.461 1.454z" fill="#005A70" fill-rule="nonzero"/>
    </g>
</svg>
