<?xml version="1.0" encoding="UTF-8"?>
<svg width="60px" height="51px" viewBox="0 0 60 51" version="1.1" xmlns="http://www.w3.org/2000/svg" xmlns:xlink="http://www.w3.org/1999/xlink">
    <title>icon/orderedList/alphabets-capital</title>
    <g id="icons" stroke="none" strokeWidth="1" fill="none" fillRule="evenodd" opacity="0.67">
        <g id="icons-BaseCanvas" transform="translate(-538.000000, -263.000000)" fill="#000000" fillRule="nonzero">
            <g id="Combined-Shape" transform="translate(537.000000, 262.000000)">
                <path d="M6.58496094,40.8974609 C8.11621094,40.8974609 8.11621094,40.8974609 9.41503906,41.5400391 L9.41503906,41.5400391 L8.82714844,42.9003906 L8.48345269,42.7473416 C8.13330078,42.6007487 8.13330078,42.6007487 7.75732422,42.4799805 C7.19335938,42.2988281 7.19335938,42.2988281 6.57128906,42.2988281 C5.16308594,42.2988281 5.16308594,42.2988281 4.35644531,43.296875 C3.54980469,44.2949219 3.54980469,44.2949219 3.54980469,46.0517578 C3.54980469,47.890625 3.54980469,47.890625 4.32568359,48.8339844 C5.1015625,49.7773438 5.1015625,49.7773438 6.57128906,49.7773438 C7.20703125,49.7773438 7.20703125,49.7773438 7.80175781,49.6508789 C8.39648438,49.5244141 8.39648438,49.5244141 9.0390625,49.3261719 L9.0390625,49.3261719 L9.0390625,50.7275391 L8.74020386,50.8316803 C7.67700195,51.171875 7.67700195,51.171875 6.37304688,51.171875 C4.17871094,51.171875 4.17871094,51.171875 3.00292969,49.8422852 C1.82714844,48.5126953 1.82714844,48.5126953 1.82714844,46.0380859 C1.82714844,44.4794922 1.82714844,44.4794922 2.39794922,43.3105469 C2.96875,42.1416016 2.96875,42.1416016 4.04882812,41.5195312 C5.12890625,40.8974609 5.12890625,40.8974609 6.58496094,40.8974609 Z M61,48.0351562 L61,49.5351562 L13,49.5351562 L13,48.0351562 L61,48.0351562 Z M61,43.0351562 L61,44.5351562 L13,44.5351562 L13,43.0351562 L61,43.0351562 Z M5.28613281,21.0410156 L5.57521275,21.0440848 C7.41625977,21.0839844 7.41625977,21.0839844 8.27001953,21.6425781 C9.18945312,22.2441406 9.18945312,22.2441406 9.18945312,23.5429688 C9.18945312,24.4179688 9.18945312,24.4179688 8.73828125,24.9990234 C8.28710938,25.5800781 8.28710938,25.5800781 7.43945312,25.7304688 L7.43945312,25.7304688 L7.43945312,25.7988281 L7.66651596,25.8476502 C8.54725477,26.0620117 8.54725477,26.0620117 8.98779297,26.581543 C9.48339844,27.1660156 9.48339844,27.1660156 9.48339844,28.1640625 C9.48339844,29.5107422 9.48339844,29.5107422 8.54345703,30.2729492 C7.60351562,31.0351562 7.60351562,31.0351562 5.92871094,31.0351562 L5.92871094,31.0351562 L2.31933594,31.0351562 L2.31933594,21.0410156 L5.28613281,21.0410156 Z M5.60742188,26.4960938 L3.953125,26.4960938 L3.953125,29.6611328 L5.68945312,29.6611328 C6.71484375,29.6611328 6.71484375,29.6611328 7.23779297,29.2680664 C7.76074219,28.875 7.76074219,28.875 7.76074219,28.0273438 C7.76074219,27.2480469 7.76074219,27.2480469 7.22753906,26.8720703 C6.69433594,26.4960938 6.69433594,26.4960938 5.60742188,26.4960938 L5.60742188,26.4960938 Z M61,28.0351562 L61,29.5351562 L13,29.5351562 L13,28.0351562 L61,28.0351562 Z M5.36816406,22.4082031 L3.953125,22.4082031 L3.953125,25.1699219 L5.52539062,25.1699219 C6.55078125,25.1699219 6.55078125,25.1699219 7.02246094,24.8452148 C7.49414062,24.5205078 7.49414062,24.5205078 7.49414062,23.7412109 C7.49414062,23.0371094 7.49414062,23.0371094 6.98486328,22.7226562 C6.47558594,22.4082031 6.47558594,22.4082031 5.36816406,22.4082031 L5.36816406,22.4082031 Z M61,23.0351562 L61,24.5351562 L13,24.5351562 L13,23.0351562 L61,23.0351562 Z M6.51660156,1 L10.2558594,11.0351562 L8.51953125,11.0351562 L7.52148438,8.25976562 L3.70019531,8.25976562 L2.72265625,11.0351562 L1,11.0351562 L4.73925781,1 L6.51660156,1 Z M61,8.03515625 L61,9.53515625 L13,9.53515625 L13,8.03515625 L61,8.03515625 Z M5.62109375,2.40820312 C5.43652344,3.24902344 5.43652344,3.24902344 5.08105469,4.24707031 L5.08105469,4.24707031 L4.17871094,6.8515625 L7.09082031,6.8515625 L6.15429688,4.13085938 L6.11793349,4.03097873 C6.02156576,3.7594401 6.02156576,3.7594401 5.87060547,3.26953125 C5.68945312,2.68164062 5.68945312,2.68164062 5.62109375,2.40820312 Z M61,3.03515625 L61,4.53515625 L13,4.53515625 L13,3.03515625 L61,3.03515625 Z"></path>
            </g>
        </g>
    </g>
</svg>