<?xml version="1.0" encoding="UTF-8"?>
<svg width="59px" height="49px" viewBox="0 0 59 49" version="1.1" xmlns="http://www.w3.org/2000/svg" xmlns:xlink="http://www.w3.org/1999/xlink">
    <title>icon/orderedList/alphabets-small</title>
    <g id="icons" stroke="none" stroke-width="1" fill="none" fill-rule="evenodd" opacity="0.67">
        <g id="icons-BaseCanvas" transform="translate(-539.000000, -264.000000)" fill="#000000" fill-rule="nonzero">
            <g id="Combined-Shape" transform="translate(537.000000, 262.000000)">
                <path d="M6.96972656,42.3027344 C8.16601562,42.3027344 8.16601562,42.3027344 9.12304688,42.7470703 L9.12304688,42.7470703 L8.63769531,44.0390625 L8.38861084,43.9461365 C7.53625488,43.6425781 7.53625488,43.6425781 6.95605469,43.6425781 C4.99414062,43.6425781 4.99414062,43.6425781 4.99414062,46.2470703 C4.99414062,47.5185547 4.99414062,47.5185547 5.48291016,48.1577148 C5.97167969,48.796875 5.97167969,48.796875 6.91503906,48.796875 C7.98828125,48.796875 7.98828125,48.796875 8.9453125,48.2636719 L8.9453125,48.2636719 L8.9453125,49.6650391 L8.72634888,49.7825317 C8.39245605,49.9453125 8.39245605,49.9453125 8.02587891,50.0273438 C7.53710938,50.1367188 7.53710938,50.1367188 6.83984375,50.1367188 C5.12402344,50.1367188 5.12402344,50.1367188 4.23193359,49.1352539 C3.33984375,48.1337891 3.33984375,48.1337891 3.33984375,46.2607422 C3.33984375,44.3535156 3.33984375,44.3535156 4.27294922,43.328125 C5.20605469,42.3027344 5.20605469,42.3027344 6.96972656,42.3027344 Z M60.5742188,47 L60.5742188,48.5 L12.5742188,48.5 L12.5742188,47 L60.5742188,47 Z M60.5742188,42 L60.5742188,43.5 L12.5742188,43.5 L12.5742188,42 L60.5742188,42 Z M3.60644531,19.3632812 L3.60644531,21.8925781 L3.60568576,21.9935981 C3.60188802,22.2651367 3.60188802,22.2651367 3.57910156,22.7265625 C3.55175781,23.2802734 3.55175781,23.2802734 3.53808594,23.4306641 L3.53808594,23.4306641 L3.60644531,23.4306641 L3.7195173,23.275286 C4.47851562,22.3027344 4.47851562,22.3027344 5.86230469,22.3027344 C7.27734375,22.3027344 7.27734375,22.3027344 8.06689453,23.328125 C8.85644531,24.3535156 8.85644531,24.3535156 8.85644531,26.2060547 C8.85644531,28.0654297 8.85644531,28.0654297 8.05664062,29.1010742 C7.25683594,30.1367188 7.25683594,30.1367188 5.83496094,30.1367188 C4.39941406,30.1367188 4.39941406,30.1367188 3.60644531,29.1044922 L3.60644531,29.1044922 L3.49707031,29.1044922 L3.203125,30 L2,30 L2,19.3632812 L3.60644531,19.3632812 Z M5.4453125,23.6152344 C4.47460938,23.6152344 4.47460938,23.6152344 4.04736328,24.1860352 C3.62011719,24.7568359 3.62011719,24.7568359 3.60644531,26.0966797 L3.60644531,26.0966797 L3.60644531,26.2060547 L3.61006101,26.4508208 C3.64621804,27.6431552 3.64621804,27.6431552 4.04394531,28.2055664 C4.48144531,28.8242188 4.48144531,28.8242188 5.47265625,28.8242188 C6.32714844,28.8242188 6.32714844,28.8242188 6.76806641,28.1474609 C7.20898438,27.4707031 7.20898438,27.4707031 7.20898438,26.1923828 C7.20898438,23.6152344 7.20898438,23.6152344 5.4453125,23.6152344 Z M60.5742188,27 L60.5742188,28.5 L12.5742188,28.5 L12.5742188,27 L60.5742188,27 Z M60.5742188,22 L60.5742188,23.5 L12.5742188,23.5 L12.5742188,22 L60.5742188,22 Z M5.56835938,2.30273438 C7.01074219,2.30273438 7.01074219,2.30273438 7.74560547,2.93164062 C8.48046875,3.56054688 8.48046875,3.56054688 8.48046875,4.90722656 L8.48046875,4.90722656 L8.48046875,10 L7.33203125,10 L7.01074219,8.94726562 L6.95605469,8.94726562 L6.79966518,9.13553292 C6.33007812,9.67333984 6.33007812,9.67333984 5.85546875,9.88720703 C5.30175781,10.1367188 5.30175781,10.1367188 4.43359375,10.1367188 C3.31933594,10.1367188 3.31933594,10.1367188 2.69384766,9.53515625 C2.06835938,8.93359375 2.06835938,8.93359375 2.06835938,7.83300781 C2.06835938,6.6640625 2.06835938,6.6640625 2.93652344,6.06933594 C3.8046875,5.47460938 3.8046875,5.47460938 5.58203125,5.41992188 L5.58203125,5.41992188 L6.88769531,5.37890625 L6.88769531,4.97558594 L6.88240814,4.80014801 C6.84539795,4.20611572 6.84539795,4.20611572 6.54931641,3.89208984 C6.2109375,3.53320312 6.2109375,3.53320312 5.5,3.53320312 C4.91894531,3.53320312 4.91894531,3.53320312 4.38574219,3.70410156 C3.85253906,3.875 3.85253906,3.875 3.36035156,4.10742188 L3.36035156,4.10742188 L2.84082031,2.95898438 L3.0915625,2.83662109 C3.60234375,2.60419922 3.60234375,2.60419922 4.1875,2.47021484 C4.91894531,2.30273438 4.91894531,2.30273438 5.56835938,2.30273438 Z M6.87402344,6.390625 L5.90332031,6.43164062 L5.65878786,6.44442636 C4.71120877,6.51025391 4.71120877,6.51025391 4.25244141,6.81103516 C3.73632812,7.14941406 3.73632812,7.14941406 3.73632812,7.84667969 C3.73632812,8.35253906 3.73632812,8.35253906 4.03710938,8.62939453 C4.33789062,8.90625 4.33789062,8.90625 4.93945312,8.90625 C5.81445312,8.90625 5.81445312,8.90625 6.34423828,8.41748047 C6.87402344,7.92871094 6.87402344,7.92871094 6.87402344,7.046875 L6.87402344,7.046875 L6.87402344,6.390625 Z M60.5742188,7 L60.5742188,8.5 L12.5742188,8.5 L12.5742188,7 L60.5742188,7 Z M60.5742188,2 L60.5742188,3.5 L12.5742188,3.5 L12.5742188,2 L60.5742188,2 Z"></path>
            </g>
        </g>
    </g>
</svg>