<?xml version="1.0" encoding="iso-8859-1"?>
<!-- Generator: Adobe Illustrator 16.0.0, SVG Export Plug-In . SVG Version: 6.00 Build 0)  -->
<!DOCTYPE svg PUBLIC "-//W3C//DTD SVG 1.1//EN" "http://www.w3.org/Graphics/SVG/1.1/DTD/svg11.dtd">

 <svg id="audio-elem" viewBox="0 0 17 17" version="1.1"  xmlns="http://www.w3.org/2000/svg" xmlns:xlink="http://www.w3.org/1999/xlink" xml:space="preserve">
                                    <title>media-icon</title>
        <rect width="17" height="17" fill="none"/>
                                    <g>
                                        <path d="M15.8,13.5H5.2a.79.79,0,0,1-.8-.8V2.3a.79.79,0,0,1,.8-.8H15.7a.79.79,0,0,1,.8.8V12.8A.68.68,0,0,1,15.8,13.5ZM6,12h9V3H6Z" />
                                        <path d="M13.5,16.5H2.2a.79.79,0,0,1-.8-.8V4.5H3V15H13.5Z" />
                                        <circle cx="8.2" cy="5.3" r="1.5" />
                                        <polygon points="12 6.8 10.1 9.7 9 8.3 6.8 11.3 14.2 11.3 12 6.8" />
                                        </g>
                                    </svg>