<?xml version="1.0" encoding="UTF-8"?>
<svg id="image-media" viewBox="0 0 16 14" width="18" height="18" version="1.1" xmlns="http://www.w3.org/2000/svg">
<rect width="18" height="18" fill="none" ></rect>
<path d="M15,2h0V14H1V2H15Zm0-1H1A1,1,0,0,0,0,2V14a1,1,0,0,0,1,1H15a1,1,0,0,0,1-1V2a1,1,0,0,0-1-1Z" transform="translate(0 -1)">
</path>
<path d="M13,4.5A1.5,1.5,0,1,1,11.5,3,1.5,1.5,0,0,1,13,4.5Z" transform="translate(0 -1)">
</path>
<path d="M14,13H2V11L5.5,5l4,5h1L14,7Z" transform="translate(0 -1)">
</path>
</svg>