<svg xmlns="http://www.w3.org/2000/svg" width="24" height="24" viewBox="0 0 24 24">
    <g fill="none" fill-rule="evenodd">
        <g>
            <g>
                <g>
                    <path fill="#EEE" fill-opacity="0" d="M0 0H24V24H0z" transform="translate(-1006.000000, -527.000000) translate(1000.000000, 521.000000) translate(6.000000, 6.000000)"/>
                    <path fill="#AA0100" d="M6.889 18.222c0 .982.796 1.778 1.778 1.778h7.11c.983 0 1.779-.796 1.779-1.778V7.556H6.889v10.666m2.187-6.329l1.253-1.253 1.893 1.884 1.885-1.884 1.253 1.253-1.884 1.885 1.884 1.884-1.253 1.254-1.885-1.885-1.884 1.885-1.254-1.254 1.885-1.884-1.893-1.885m6.257-7.004L14.444 4H10l-.889.889H6v1.778h12.444V4.889h-3.11z" transform="translate(-1006.000000, -527.000000) translate(1000.000000, 521.000000) translate(6.000000, 6.000000)"/>
                </g>
            </g>
        </g>
    </g>
</svg>
