<?xml version="1.0" encoding="iso-8859-1"?>
<!-- Generator: Adobe Illustrator 16.0.0, SVG Export Plug-In . SVG Version: 6.00 Build 0)  -->
<!DOCTYPE svg PUBLIC "-//W3C//DTD SVG 1.1//EN" "http://www.w3.org/Graphics/SVG/1.1/DTD/svg11.dtd">
 <svg xmlns="http://www.w3.org/2000/svg" viewBox="0 0 20 20">
                                      <title>widget-icon</title>
                                      <rect style={{width:"20", height:"20", fill:"none"}} />
                                      <path d="M9.2,18.3H8.9a.87.87,0,0,1-.6-.8V11.7H4.2a1,1,0,0,1-.8-.5,1,1,0,0,1,.1-.9L10.2,2a.81.81,0,0,1,.9-.3.87.87,0,0,1,.6.8V8.3h4.2a1,1,0,0,1,.8.5.76.76,0,0,1-.1.9L9.8,18A.71.71,0,0,1,9.2,18.3ZM5.9,10H9.2a.79.79,0,0,1,.8.8v4.3L14.1,10H10.8a.86.86,0,0,1-.8-.8V4.9Z" />
                                  </svg>
