<?xml version="1.0" encoding="UTF-8"?>
<svg width="35px" height="11px" viewBox="0 0 35 11" version="1.1" xmlns="http://www.w3.org/2000/svg" xmlns:xlink="http://www.w3.org/1999/xlink">
    <title>icon/orderedList/none</title>
    <g id="icons" stroke="none" stroke-width="1" fill="none" fill-rule="evenodd" opacity="0.67">
        <g id="icons-BaseCanvas" transform="translate(-551.000000, -283.000000)" fill="#000000" fill-rule="nonzero">
            <g id="None" transform="translate(537.000000, 262.000000)">
                <path d="M15.4833984,30.9941406 L15.4833984,25.7988281 C15.4833984,25.0970052 15.4514974,24.3222656 15.3876953,23.4746094 L15.3876953,23.4746094 L15.3535156,23.0302734 L15.4082031,23.0302734 L20.3232422,30.9941406 L22.3261719,30.9941406 L22.3261719,21 L20.8291016,21 L20.8291016,26.2363281 C20.8291016,26.6054688 20.8427734,27.1193034 20.8701172,27.777832 C20.8974609,28.4363607 20.9156901,28.8180339 20.9248047,28.9228516 L20.9248047,28.9228516 L20.8837891,28.9228516 L15.9824219,21 L14,21 L14,30.9941406 L15.4833984,30.9941406 Z M27.9042969,31.1308594 C29.0345052,31.1308594 29.9163411,30.7845052 30.5498047,30.0917969 C31.1832682,29.3990885 31.5,28.4352214 31.5,27.2001953 C31.5,26.0061849 31.1809896,25.0571289 30.5429688,24.3530273 C29.9049479,23.6489258 29.0390625,23.296875 27.9453125,23.296875 C26.8014323,23.296875 25.9150391,23.6409505 25.2861328,24.3291016 C24.6572266,25.0172526 24.3427734,25.9742839 24.3427734,27.2001953 C24.3427734,27.9886068 24.4886068,28.6813151 24.7802734,29.2783203 C25.0719401,29.8753255 25.4889323,30.3333333 26.03125,30.6523438 C26.5735677,30.9713542 27.1979167,31.1308594 27.9042969,31.1308594 Z M27.9316406,29.8183594 C26.6419271,29.8183594 25.9970703,28.945638 25.9970703,27.2001953 C25.9970703,26.3662109 26.1486003,25.7259115 26.4516602,25.2792969 C26.7547201,24.8326823 27.2434896,24.609375 27.9179688,24.609375 C29.203125,24.609375 29.8457031,25.4729818 29.8457031,27.2001953 C29.8457031,28.945638 29.2076823,29.8183594 27.9316406,29.8183594 Z M34.9521484,30.9941406 L34.9521484,27.2275391 C34.9521484,26.2841797 35.109375,25.6119792 35.4238281,25.2109375 C35.7382812,24.8098958 36.235026,24.609375 36.9140625,24.609375 C37.4244792,24.609375 37.7970378,24.7529297 38.0317383,25.0400391 C38.2664388,25.3271484 38.3837891,25.7623698 38.3837891,26.3457031 L38.3837891,26.3457031 L38.3837891,30.9941406 L39.9970703,30.9941406 L39.9970703,26.0654297 C39.9970703,24.2197266 39.0901693,23.296875 37.2763672,23.296875 C36.7659505,23.296875 36.3011068,23.3948568 35.8818359,23.5908203 C35.4625651,23.7867839 35.1389974,24.0647786 34.9111328,24.4248047 L34.9111328,24.4248047 L34.8291016,24.4248047 L34.6035156,23.4335938 L33.3457031,23.4335938 L33.3457031,30.9941406 L34.9521484,30.9941406 Z M45.5341797,31.1308594 C46.0491536,31.1308594 46.5071615,31.0921224 46.9082031,31.0146484 C47.3092448,30.9371745 47.7057292,30.805013 48.0976562,30.6181641 L48.0976562,30.6181641 L48.0976562,29.3125 C47.655599,29.5084635 47.2420247,29.6486003 46.8569336,29.7329102 C46.4718424,29.8172201 46.0559896,29.859375 45.609375,29.859375 C44.9303385,29.859375 44.4039714,29.6622721 44.0302734,29.2680664 C43.6565755,28.8738607 43.4583333,28.3098958 43.4355469,27.5761719 L43.4355469,27.5761719 L48.4736328,27.5761719 L48.4736328,26.7080078 C48.4736328,25.6461589 48.1842448,24.8121745 47.6054688,24.2060547 C47.0266927,23.5999349 46.2382812,23.296875 45.2402344,23.296875 C44.1647135,23.296875 43.3193359,23.6500651 42.7041016,24.3564453 C42.0888672,25.0628255 41.78125,26.0335286 41.78125,27.2685547 C41.78125,28.4716797 42.112793,29.4161784 42.7758789,30.1020508 C43.4389648,30.7879232 44.3583984,31.1308594 45.5341797,31.1308594 Z M46.8945312,26.4140625 L43.4628906,26.4140625 C43.5221354,25.7942708 43.7055664,25.3225911 44.0131836,24.9990234 C44.3208008,24.6754557 44.7298177,24.5136719 45.2402344,24.5136719 C45.750651,24.5136719 46.1516927,24.6743164 46.4433594,24.9956055 C46.735026,25.3168945 46.8854167,25.7897135 46.8945312,26.4140625 L46.8945312,26.4140625 Z"></path>
            </g>
        </g>
    </g>
</svg>