<?xml version="1.0" encoding="UTF-8"?>
<svg width="60px" height="51px" viewBox="0 0 60 51" version="1.1" xmlns="http://www.w3.org/2000/svg" xmlns:xlink="http://www.w3.org/1999/xlink">
    <title>icon/orderedList/numbers</title>
    <g id="icons" stroke="none" strokeWidth="1" fill="none" fillRule="evenodd" opacity="0.67">
        <g id="icons-BaseCanvas" transform="translate(-538.000000, -263.000000)" fill="#000000" fillRule="nonzero">
            <g id="Combined-Shape" transform="translate(537.000000, 262.000000)">
                <path d="M4.21972656,40.8564453 C5.73046875,40.8564453 5.73046875,40.8564453 6.578125,41.5058594 C7.42578125,42.1552734 7.42578125,42.1552734 7.42578125,43.296875 C7.42578125,44.2470703 7.42578125,44.2470703 6.87207031,44.8793945 C6.31835938,45.5117188 6.31835938,45.5117188 5.31347656,45.7304688 L5.31347656,45.7304688 L5.31347656,45.7851562 L5.57341098,45.8241042 C6.58344184,46.0020074 6.58344184,46.0020074 7.11816406,46.5336914 C7.71972656,47.1318359 7.71972656,47.1318359 7.71972656,48.1230469 C7.71972656,49.5654297 7.71972656,49.5654297 6.70117188,50.3481445 C5.68261719,51.1308594 5.68261719,51.1308594 3.80273438,51.1308594 C2.14160156,51.1308594 2.14160156,51.1308594 1,50.5908203 L1,50.5908203 L1,49.1621094 L1.25730469,49.2821484 C1.77792969,49.5107422 1.77792969,49.5107422 2.34667969,49.6474609 C3.05761719,49.8183594 3.05761719,49.8183594 3.71386719,49.8183594 C4.87597656,49.8183594 4.87597656,49.8183594 5.45019531,49.3876953 C6.02441406,48.9570312 6.02441406,48.9570312 6.02441406,48.0546875 C6.02441406,47.2548828 6.02441406,47.2548828 5.38867188,46.8789062 C4.75292969,46.5029297 4.75292969,46.5029297 3.39257812,46.5029297 L3.39257812,46.5029297 L2.52441406,46.5029297 L2.52441406,45.1972656 L3.40625,45.1972656 L3.61881376,45.1938477 C5.79882812,45.1220703 5.79882812,45.1220703 5.79882812,43.5429688 C5.79882812,42.9003906 5.79882812,42.9003906 5.38183594,42.5517578 C4.96484375,42.203125 4.96484375,42.203125 4.15136719,42.203125 C3.58398438,42.203125 3.58398438,42.203125 3.05761719,42.3637695 C2.53125,42.5244141 2.53125,42.5244141 1.81347656,42.9892578 L1.81347656,42.9892578 L1.02734375,41.8681641 L1.25943332,41.7065701 C2.55289714,40.8564453 2.55289714,40.8564453 4.21972656,40.8564453 Z M60.4121094,47.9941406 L60.4121094,49.4941406 L12.4121094,49.4941406 L12.4121094,47.9941406 L60.4121094,47.9941406 Z M60.4121094,42.9941406 L60.4121094,44.4941406 L12.4121094,44.4941406 L12.4121094,42.9941406 L60.4121094,42.9941406 Z M4.37695312,20.8564453 C5.77148438,20.8564453 5.77148438,20.8564453 6.61230469,21.5844727 C7.453125,22.3125 7.453125,22.3125 7.453125,23.5429688 C7.453125,24.2197266 7.453125,24.2197266 7.21044922,24.828125 C6.96777344,25.4365234 6.96777344,25.4365234 6.46533203,26.0825195 C5.96289062,26.7285156 5.96289062,26.7285156 4.79394531,27.8291016 L4.79394531,27.8291016 L3.05761719,29.5107422 L3.05761719,29.5791016 L7.80175781,29.5791016 L7.80175781,30.9941406 L1.02734375,30.9941406 L1.02734375,29.7773438 L3.60449219,27.1865234 L3.78941854,26.9964227 C4.7771403,25.9768473 4.7771403,25.9768473 5.11865234,25.5288086 C5.49121094,25.0400391 5.49121094,25.0400391 5.66210938,24.609375 C5.83300781,24.1787109 5.83300781,24.1787109 5.83300781,23.6865234 C5.83300781,23.0097656 5.83300781,23.0097656 5.42626953,22.6201172 C5.01953125,22.2304688 5.01953125,22.2304688 4.30175781,22.2304688 C3.72753906,22.2304688 3.72753906,22.2304688 3.19091797,22.4423828 C2.65429688,22.6542969 2.65429688,22.6542969 1.95019531,23.2080078 L1.95019531,23.2080078 L1.08203125,22.1484375 L1.31933594,21.9556362 C2.02832031,21.4023438 2.02832031,21.4023438 2.70214844,21.1503906 C3.48828125,20.8564453 3.48828125,20.8564453 4.37695312,20.8564453 Z M60.4121094,27.9941406 L60.4121094,29.4941406 L12.4121094,29.4941406 L12.4121094,27.9941406 L60.4121094,27.9941406 Z M60.4121094,22.9941406 L60.4121094,24.4941406 L12.4121094,24.4941406 L12.4121094,22.9941406 L60.4121094,22.9941406 Z M5.74414062,1 L5.74414062,10.9941406 L4.13769531,10.9941406 L4.13769531,4.54101562 L4.1385498,4.25967407 C4.14453125,3.30114746 4.14453125,3.30114746 4.19238281,2.70898438 C4.03515625,2.87304688 4.03515625,2.87304688 3.80615234,3.07128906 C3.57714844,3.26953125 3.57714844,3.26953125 2.27148438,4.32910156 L2.27148438,4.32910156 L1.46484375,3.31054688 L4.40429688,1 L5.74414062,1 Z M60.4121094,7.99414062 L60.4121094,9.49414062 L12.4121094,9.49414062 L12.4121094,7.99414062 L60.4121094,7.99414062 Z M60.4121094,2.99414062 L60.4121094,4.49414062 L12.4121094,4.49414062 L12.4121094,2.99414062 L60.4121094,2.99414062 Z"></path>
            </g>
        </g>
    </g>
</svg>