<?xml version="1.0" encoding="UTF-8"?>
<svg width="59px" height="50px" viewBox="0 0 59 50" version="1.1" xmlns="http://www.w3.org/2000/svg" xmlns:xlink="http://www.w3.org/1999/xlink">
    <title>icon/orderedList/romans-capital</title>
    <g id="icons" stroke="none" stroke-width="1" fill="none" fill-rule="evenodd" opacity="0.67">
        <g id="icons-BaseCanvas" transform="translate(-539.000000, -263.000000)" fill="#000000" fill-rule="nonzero">
            <g id="Combined-Shape" transform="translate(537.000000, 262.000000)">
                <path d="M3.63378906,41 L3.63378906,50.9941406 L2,50.9941406 L2,41 L3.63378906,41 Z M7.90625,41 L7.90625,50.9941406 L6.27246094,50.9941406 L6.27246094,41 L7.90625,41 Z M12.1787109,41 L12.1787109,50.9941406 L10.5449219,50.9941406 L10.5449219,41 L12.1787109,41 Z M60.4980469,47.9941406 L60.4980469,49.4941406 L16.4980469,49.4941406 L16.4980469,47.9941406 L60.4980469,47.9941406 Z M60.4980469,42.9941406 L60.4980469,44.4941406 L16.4980469,44.4941406 L16.4980469,42.9941406 L60.4980469,42.9941406 Z M7.90625,21 L7.90625,30.9941406 L6.27246094,30.9941406 L6.27246094,21 L7.90625,21 Z M12.1787109,21 L12.1787109,30.9941406 L10.5449219,30.9941406 L10.5449219,21 L12.1787109,21 Z M60.4980469,27.9941406 L60.4980469,29.4941406 L16.4980469,29.4941406 L16.4980469,27.9941406 L60.4980469,27.9941406 Z M60.4980469,22.9941406 L60.4980469,24.4941406 L16.4980469,24.4941406 L16.4980469,22.9941406 L60.4980469,22.9941406 Z M12.1787109,1 L12.1787109,10.9941406 L10.5449219,10.9941406 L10.5449219,1 L12.1787109,1 Z M60.4980469,7.99414062 L60.4980469,9.49414062 L16.4980469,9.49414062 L16.4980469,7.99414062 L60.4980469,7.99414062 Z M60.4980469,2.99414062 L60.4980469,4.49414062 L16.4980469,4.49414062 L16.4980469,2.99414062 L60.4980469,2.99414062 Z"></path>
            </g>
        </g>
    </g>
</svg>