<?xml version="1.0" encoding="UTF-8"?>
<svg width="59px" height="51px" viewBox="0 0 59 51" version="1.1" xmlns="http://www.w3.org/2000/svg" xmlns:xlink="http://www.w3.org/1999/xlink">
    <title>icon/orderedList/romans-small</title>
    <g id="icons" stroke="none" strokeWidth="1" fill="none" fillRule="evenodd" opacity="0.67">
        <g id="icons-BaseCanvas" transform="translate(-539.000000, -263.000000)" fill="#000000" fillRule="nonzero">
            <g id="Combined-Shape" transform="translate(537.000000, 262.000000)">
                <path d="M3.70214844,43.8984375 L3.70214844,51.4589844 L2.09570312,51.4589844 L2.09570312,43.8984375 L3.70214844,43.8984375 Z M7.60546875,43.8984375 L7.60546875,51.4589844 L5.99902344,51.4589844 L5.99902344,43.8984375 L7.60546875,43.8984375 Z M11.5087891,43.8984375 L11.5087891,51.4589844 L9.90234375,51.4589844 L9.90234375,43.8984375 L11.5087891,43.8984375 Z M60.6572266,48.4589844 L60.6572266,49.9589844 L16.6572266,49.9589844 L16.6572266,48.4589844 L60.6572266,48.4589844 Z M60.6572266,43.4589844 L60.6572266,44.9589844 L16.6572266,44.9589844 L16.6572266,43.4589844 L60.6572266,43.4589844 Z M2.90917969,41 C3.33300781,41 3.33300781,41 3.56884766,41.2324219 C3.8046875,41.4648438 3.8046875,41.4648438 3.8046875,41.8955078 C3.8046875,42.3056641 3.8046875,42.3056641 3.56884766,42.5415039 C3.33300781,42.7773438 3.33300781,42.7773438 2.90917969,42.7773438 C2.47167969,42.7773438 2.47167969,42.7773438 2.23583984,42.5415039 C2,42.3056641 2,42.3056641 2,41.8955078 C2,41.4648438 2,41.4648438 2.23583984,41.2324219 C2.47167969,41 2.47167969,41 2.90917969,41 Z M6.8125,41 C7.23632812,41 7.23632812,41 7.47216797,41.2324219 C7.70800781,41.4648438 7.70800781,41.4648438 7.70800781,41.8955078 C7.70800781,42.3056641 7.70800781,42.3056641 7.47216797,42.5415039 C7.23632812,42.7773438 7.23632812,42.7773438 6.8125,42.7773438 C6.375,42.7773438 6.375,42.7773438 6.13916016,42.5415039 C5.90332031,42.3056641 5.90332031,42.3056641 5.90332031,41.8955078 C5.90332031,41.4648438 5.90332031,41.4648438 6.13916016,41.2324219 C6.375,41 6.375,41 6.8125,41 Z M10.7158203,41 C11.1396484,41 11.1396484,41 11.3754883,41.2324219 C11.6113281,41.4648438 11.6113281,41.4648438 11.6113281,41.8955078 C11.6113281,42.3056641 11.6113281,42.3056641 11.3754883,42.5415039 C11.1396484,42.7773438 11.1396484,42.7773438 10.7158203,42.7773438 C10.2783203,42.7773438 10.2783203,42.7773438 10.0424805,42.5415039 C9.80664062,42.3056641 9.80664062,42.3056641 9.80664062,41.8955078 C9.80664062,41.4648438 9.80664062,41.4648438 10.0424805,41.2324219 C10.2783203,41 10.2783203,41 10.7158203,41 Z M7.60546875,23.8984375 L7.60546875,31.4589844 L5.99902344,31.4589844 L5.99902344,23.8984375 L7.60546875,23.8984375 Z M11.5087891,23.8984375 L11.5087891,31.4589844 L9.90234375,31.4589844 L9.90234375,23.8984375 L11.5087891,23.8984375 Z M60.6572266,28.4589844 L60.6572266,29.9589844 L16.6572266,29.9589844 L16.6572266,28.4589844 L60.6572266,28.4589844 Z M60.6572266,23.4589844 L60.6572266,24.9589844 L16.6572266,24.9589844 L16.6572266,23.4589844 L60.6572266,23.4589844 Z M6.8125,21 C7.23632812,21 7.23632812,21 7.47216797,21.2324219 C7.70800781,21.4648438 7.70800781,21.4648438 7.70800781,21.8955078 C7.70800781,22.3056641 7.70800781,22.3056641 7.47216797,22.5415039 C7.23632812,22.7773438 7.23632812,22.7773438 6.8125,22.7773438 C6.375,22.7773438 6.375,22.7773438 6.13916016,22.5415039 C5.90332031,22.3056641 5.90332031,22.3056641 5.90332031,21.8955078 C5.90332031,21.4648438 5.90332031,21.4648438 6.13916016,21.2324219 C6.375,21 6.375,21 6.8125,21 Z M10.7158203,21 C11.1396484,21 11.1396484,21 11.3754883,21.2324219 C11.6113281,21.4648438 11.6113281,21.4648438 11.6113281,21.8955078 C11.6113281,22.3056641 11.6113281,22.3056641 11.3754883,22.5415039 C11.1396484,22.7773438 11.1396484,22.7773438 10.7158203,22.7773438 C10.2783203,22.7773438 10.2783203,22.7773438 10.0424805,22.5415039 C9.80664062,22.3056641 9.80664062,22.3056641 9.80664062,21.8955078 C9.80664062,21.4648438 9.80664062,21.4648438 10.0424805,21.2324219 C10.2783203,21 10.2783203,21 10.7158203,21 Z M11.5087891,3.8984375 L11.5087891,11.4589844 L9.90234375,11.4589844 L9.90234375,3.8984375 L11.5087891,3.8984375 Z M60.6572266,8.45898438 L60.6572266,9.95898438 L16.6572266,9.95898438 L16.6572266,8.45898438 L60.6572266,8.45898438 Z M60.6572266,3.45898438 L60.6572266,4.95898438 L16.6572266,4.95898438 L16.6572266,3.45898438 L60.6572266,3.45898438 Z M10.7158203,1 C11.1396484,1 11.1396484,1 11.3754883,1.23242188 C11.6113281,1.46484375 11.6113281,1.46484375 11.6113281,1.89550781 C11.6113281,2.30566406 11.6113281,2.30566406 11.3754883,2.54150391 C11.1396484,2.77734375 11.1396484,2.77734375 10.7158203,2.77734375 C10.2783203,2.77734375 10.2783203,2.77734375 10.0424805,2.54150391 C9.80664062,2.30566406 9.80664062,2.30566406 9.80664062,1.89550781 C9.80664062,1.46484375 9.80664062,1.46484375 10.0424805,1.23242188 C10.2783203,1 10.2783203,1 10.7158203,1 Z"></path>
            </g>
        </g>
    </g>
</svg>