<?xml version="1.0" encoding="UTF-8"?>
<svg width="12px" height="12px" viewBox="0 -0 12 9.5" version="1.1" xmlns="http://www.w3.org/2000/svg" xmlns:xlink="http://www.w3.org/1999/xlink">
    <title>Shape</title>
    <g id="PCAT-14709-|-Revision-to-has-a-comment-UI" stroke="none" stroke-width="1" fill="none" fill-rule="evenodd">
        <path d="M11.994,1.2 C11.994,0.54 11.46,0 10.8,0 L1.2,0 C0.54,0 0,0.54 0,1.2 L0,8.4 C0,9.06 0.54,9.6 1.2,9.6 L9.6,9.6 L12,12 L11.994,1.2 Z M10.8,1.2 L10.8,9.102 L10.098,8.4 L1.2,8.4 L1.2,1.2 L10.8,1.2 Z M2.4,5.6 L9.6,5.6 L9.6,6.8 L2.4,6.8 L2.4,5.6 Z M2.4,3.06666667 L9.6,3.06666667 L9.6,4.26666667 L2.4,4.26666667 L2.4,3.06666667 Z" id="Shape" fill="#FFF" fill-rule="nonzero"></path>
    </g>
</svg>