<svg xmlns="http://www.w3.org/2000/svg" width="18" height="18" viewBox="0 0 24 24">
    <g fill="none" fill-rule="evenodd">
        <g>
            <path fill="#EEE" fill-opacity="0" d="M0 0H24V24H0z"/>
            <path fill="#005A70" fill-opacity=".87" fill-rule="nonzero" d="M7 5v2H5v11l4-1.845L13 18v-4h2v7l-6-2.667L3 21l.009-14.222c0-.93.688-1.698 1.565-1.772L4.714 5H7zm7.3-.25v1.33h-2.8c-1.197 0-2.17.973-2.17 2.17s.973 2.17 2.17 2.17h2.8v1.33h-2.8c-1.933 0-3.5-1.567-3.5-3.5s1.567-3.5 3.5-3.5h2.8zm4.2 0c1.933 0 3.5 1.567 3.5 3.5s-1.567 3.5-3.5 3.5h-2.8v-1.33h2.8c1.197 0 2.17-.973 2.17-2.17s-.973-2.17-2.17-2.17h-2.8V4.75zm-.7 2.8v1.4h-5.6v-1.4h5.6z"/>
        </g>
    </g>
</svg>
