<?xml version="1.0" encoding="UTF-8"?>
<svg style="margin-top: 5px" width="12" height="12" viewBox="0 0 20 18" version="1.1" xmlns="http://www.w3.org/2000/svg" xmlns:xlink="http://www.w3.org/1999/xlink">
    <g id="icon/specialOptions/link" transform="translate(-3.000000, -8.000000)">
        <path d="M4.71,12.5 C4.71,10.961 5.961,9.71 7.5,9.71 L11.1,9.71 L11.1,8 L7.5,8 C5.01471863,8 3,10.0147186 3,12.5 C3,14.9852814 5.01471863,17 7.5,17 L11.1,17 L11.1,15.29 L7.5,15.29 C5.961,15.29 4.71,14.039 4.71,12.5 M8.4,13.4 L15.6,13.4 L15.6,11.6 L8.4,11.6 L8.4,13.4 M16.5,8 L12.9,8 L12.9,9.71 L16.5,9.71 C18.039,9.71 19.29,10.961 19.29,12.5 C19.29,14.039 18.039,15.29 16.5,15.29 L12.9,15.29 L12.9,17 L16.5,17 C18.9852814,17 21,14.9852814 21,12.5 C21,10.0147186 18.9852814,8 16.5,8 Z" id="Shape" fillOpacity="0.87" fill="#007FA3" fillRule="nonzero"></path>
    </g>
</svg>