<svg id="assessmentSlate-item-icon" width="20" height="17" viewBox="0 0 24 24" version="1.1">
        <g id="surface1">
            <path className=" cls-3" d="M 2.390625 0 L 21.609375 0 C 22.929688 0 24 1.070312 24 2.390625 L 24 21.609375 C 24 22.929688 22.929688 24 21.609375 24 L 2.390625 24 C 1.070312 24 0 22.929688 0 21.609375 L 0 2.390625 C 0 1.070312 1.070312 0 2.390625 0 Z M 2.390625 0 " />
            <path className=" cls-2" d="M 2.390625 0 L 21.609375 0 C 22.929688 0 24 1.070312 24 2.390625 L 24 21.609375 C 24 22.929688 22.929688 24 21.609375 24 L 2.390625 24 C 1.070312 24 0 22.929688 0 21.609375 L 0 2.390625 C 0 1.070312 1.070312 0 2.390625 0 Z M 2.390625 0 " />
            <path className=" cls-1" d="M 7.929688 3.855469 L 19.929688 3.855469 L 19.929688 5.570312 L 7.929688 5.570312 L 7.929688 3.855469 " />
            <path className=" cls-1" d="M 7.929688 10.429688 L 7.929688 8.71875 L 19.929688 8.71875 L 19.929688 10.429688 L 7.929688 10.429688 " />
            <path className=" cls-1" d="M 5.355469 3.429688 C 6.066406 3.429688 6.644531 4.003906 6.644531 4.714844 C 6.644531 5.425781 6.066406 6 5.355469 6 C 4.648438 6 4.070312 5.425781 4.070312 4.714844 C 4.070312 4.003906 4.648438 3.429688 5.355469 3.429688 " />
            <path className=" cls-1" d="M 5.355469 8.289062 C 6.066406 8.289062 6.644531 8.863281 6.644531 9.574219 C 6.644531 10.285156 6.066406 10.859375 5.355469 10.859375 C 4.648438 10.859375 4.070312 10.285156 4.070312 9.574219 C 4.070312 8.863281 4.648438 8.289062 5.355469 8.289062 " />
            <path className=" cls-1" d="M 7.929688 15.28125 L 7.929688 13.570312 L 19.929688 13.570312 L 19.929688 15.28125 L 7.929688 15.28125 " />
            <path className=" cls-1" d="M 6.644531 14.425781 C 6.644531 15.136719 6.066406 15.710938 5.355469 15.710938 C 4.648438 15.710938 4.070312 15.136719 4.070312 14.425781 C 4.070312 13.714844 4.648438 13.140625 5.355469 13.140625 C 6.066406 13.140625 6.644531 13.714844 6.644531 14.425781 Z M 6.644531 14.425781 " />
            <path className=" cls-1" d="M 7.929688 20.144531 L 7.929688 18.429688 L 19.929688 18.429688 L 19.929688 20.144531 L 7.929688 20.144531 " />
            <path className=" cls-1" d="M 6.644531 19.285156 C 6.644531 19.996094 6.066406 20.570312 5.355469 20.570312 C 4.648438 20.570312 4.070312 19.996094 4.070312 19.285156 C 4.070312 18.574219 4.648438 18 5.355469 18 C 6.066406 18 6.644531 18.574219 6.644531 19.285156 Z M 6.644531 19.285156 " />
        </g>
    </svg>